<svg width="221" height="227" viewBox="0 0 221 227" fill="none" xmlns="http://www.w3.org/2000/svg">
<g clip-path="url(#clip0_646_3058)">
<path d="M20.332 144.209C21.0151 141.124 21.5109 137.984 22.4143 134.965C25.0859 126.075 23.3066 117.856 19.0265 109.924C15.5947 103.556 11.265 97.7662 7.4035 91.6738C3.77337 85.9449 0.154268 80.1058 0.00553711 73.088C-0.19277 63.6463 4.32423 56.4412 12.0031 51.3017C22.0452 44.5703 33.3487 43.5898 45.0543 44.5593C59.9935 45.7767 73.1479 52.2712 86.5666 58.1268C91.7226 60.3798 96.796 62.8421 102.294 64.1586C123.182 69.1604 129.181 45.5894 133.439 30.3032C138.27 12.9403 156.762 1.2016 174.433 0.942701C192.832 0.678291 210.79 12.6759 217.615 29.7744C227.811 55.367 211.511 76.8999 194.341 94.0149C184.227 104.09 181.517 116.049 185.494 129.666C187.147 135.423 189.675 140.821 191.945 146.335C196.148 156.537 198.957 167.097 197.52 178.196C195.608 192.965 186.541 210.697 168.324 212.647C148.642 214.778 131.841 209.061 120.119 192.006C116.483 186.718 113.311 181.105 108.992 176.29C100.646 166.992 85.1675 159.809 69.7105 169.564C64.3727 172.93 59.0515 176.329 53.6366 179.568C47.3955 183.308 40.9119 186.233 33.3156 185.748C21.1803 184.944 14.9282 177.298 16.3108 165.114C17.1206 158.024 18.7125 151.122 20.332 144.209Z" fill="#EEF0F4"/>
<path d="M200.384 58.6829C200.384 58.6829 188.37 154.912 168.616 176.566C144.841 202.538 127.699 198.732 118.136 212.14C108.551 198.715 91.359 202.538 67.6172 176.544C47.8636 154.906 35.8826 58.6609 35.8826 58.6609C87.9217 33.4043 118.191 5.09042 118.191 5.09042C119.067 6.01035 149.155 33.8284 200.384 58.6829Z" fill="#FF7B56"/>
<path opacity="0.1" d="M118.136 5.18408V212.123C108.551 198.699 91.359 202.522 67.6172 176.527C47.8636 154.89 35.8826 58.6444 35.8826 58.6444C87.9217 33.3878 118.191 5.07391 118.191 5.07391L118.136 5.18408Z" fill="black"/>
<path d="M48.6292 66.439C48.6292 66.439 58.7649 147.723 75.4447 166.011C95.5674 187.963 110.049 184.74 118.136 196.06C126.217 184.757 140.759 187.979 160.805 166.011C177.485 147.723 187.62 66.439 187.62 66.439C143.723 45.0934 118.119 21.1698 118.119 21.1698C118.119 21.1698 92.5817 45.0934 48.6292 66.439Z" fill="#FF7B56"/>
<path opacity="0.2" d="M187.604 66.439C187.604 66.439 177.452 147.701 160.772 166.011C140.743 187.963 126.201 184.74 118.12 196.044V21.2084C118.885 21.941 144.329 45.4239 187.604 66.439Z" fill="white"/>
<path d="M118.114 140.843C135.911 140.843 150.339 126.415 150.339 108.618C150.339 90.8205 135.911 76.3929 118.114 76.3929C100.317 76.3929 85.8892 90.8205 85.8892 108.618C85.8892 126.415 100.317 140.843 118.114 140.843Z" fill="#513A3D"/>
<path d="M114.456 129.561L100.101 114.639L105.422 109.516L113.344 117.745L130.387 91.5744L136.59 95.6122L114.456 129.561Z" fill="white"/>
<path d="M187.599 197.983L183.049 198.842L182.024 203.634L180.999 198.842L176.444 197.983L180.977 196.887L182.024 192.353L183.065 196.887L187.599 197.983Z" fill="#FF7B56"/>
<path d="M52.601 161.461L48.0454 162.298L47.0208 167.113L45.9962 162.298L41.4407 161.461L45.9797 160.343L47.0208 155.809L48.0619 160.343L52.601 161.461Z" fill="#FF7B56"/>
<path d="M73.3955 34.8145L68.8399 35.6573L67.8154 40.4497L66.8128 35.6573L62.2407 34.798L66.7908 33.7018L67.8154 29.1627L68.862 33.7018L73.3955 34.8145Z" fill="#FF7B56"/>
<path d="M179.441 176.384L176.901 176.858L176.334 179.551L175.767 176.858L173.205 176.384L175.75 175.761L176.334 173.222L176.901 175.761L179.441 176.384Z" fill="#FF7B56"/>
<path d="M197.057 122.923L194.518 123.397L193.95 126.085L193.383 123.397L190.821 122.923L193.361 122.301L193.95 119.778L194.534 122.301L197.057 122.923Z" fill="#FF7B56"/>
<path d="M175.436 29.1627L172.896 29.642L172.329 32.3136L171.745 29.642L169.2 29.1627L171.745 28.5458L172.329 26.0008L172.896 28.5458L175.436 29.1627Z" fill="#FF7B56"/>
<path d="M110.38 223.686L107.835 224.159L107.251 226.831L106.684 224.159L104.144 223.686L106.684 223.063L107.251 220.518L107.835 223.063L110.38 223.686Z" fill="#FF7B56"/>
<path d="M38.4442 167.713L35.8992 168.193L35.3153 170.881L34.7479 168.193L32.2085 167.713L34.7479 167.091L35.3153 164.551L35.8992 167.091L38.4442 167.713Z" fill="#FF7B56"/>
<path d="M42.4102 93.271L39.8543 93.7503L39.2869 96.4384L38.7195 93.7503L36.1746 93.271L38.6975 92.6541L39.2869 90.1091L39.8708 92.6541L42.4102 93.271Z" fill="#FF7B56"/>
<path d="M149.265 188.436C149.108 188.412 148.948 188.437 148.807 188.509C148.666 188.581 148.552 188.695 148.48 188.836C148.408 188.977 148.382 189.137 148.407 189.294C148.432 189.45 148.505 189.594 148.617 189.706C148.729 189.818 148.874 189.892 149.03 189.916C149.186 189.941 149.346 189.916 149.487 189.844C149.628 189.772 149.743 189.657 149.815 189.516C149.887 189.375 149.912 189.215 149.887 189.059C149.862 188.903 149.789 188.758 149.677 188.647C149.565 188.535 149.421 188.461 149.265 188.436Z" fill="#FF7B56"/>
<path d="M31.8392 54.5681C31.683 54.5445 31.5233 54.5709 31.3829 54.6436C31.2426 54.7163 31.1289 54.8314 31.0579 54.9727C30.987 55.1139 30.9626 55.2739 30.9881 55.4298C31.0136 55.5858 31.0878 55.7297 31.2 55.8409C31.3123 55.9522 31.4568 56.0251 31.613 56.0492C31.7691 56.0734 31.9289 56.0475 32.0695 55.9753C32.2101 55.9032 32.3243 55.7884 32.3957 55.6475C32.4671 55.5065 32.4921 55.3466 32.4672 55.1905C32.4413 55.0339 32.3667 54.8895 32.2539 54.7777C32.1412 54.666 31.9961 54.5926 31.8392 54.5681Z" fill="#FF7B56"/>
<path d="M172.329 192.59C172.232 192.605 172.139 192.639 172.055 192.69C171.971 192.741 171.898 192.808 171.84 192.887C171.782 192.966 171.741 193.057 171.718 193.152C171.695 193.248 171.691 193.347 171.707 193.444C171.746 193.553 171.814 193.65 171.904 193.723C171.994 193.797 172.102 193.844 172.217 193.861C172.332 193.878 172.45 193.863 172.557 193.817C172.664 193.772 172.756 193.699 172.825 193.605C172.893 193.511 172.935 193.4 172.945 193.285C172.955 193.169 172.934 193.053 172.883 192.948C172.832 192.844 172.753 192.755 172.656 192.692C172.558 192.629 172.445 192.594 172.329 192.59Z" fill="#FF7B56"/>
<path d="M97.5395 77.2687C97.3946 77.2687 97.253 77.3117 97.1325 77.3922C97.012 77.4727 96.9181 77.5871 96.8627 77.721C96.8072 77.8549 96.7927 78.0022 96.821 78.1443C96.8492 78.2864 96.919 78.417 97.0215 78.5194C97.1239 78.6219 97.2545 78.6917 97.3966 78.7199C97.5387 78.7482 97.686 78.7337 97.8199 78.6782C97.9538 78.6228 98.0682 78.5289 98.1487 78.4084C98.2292 78.2879 98.2722 78.1463 98.2722 78.0014C98.2722 77.8071 98.195 77.6207 98.0576 77.4833C97.9202 77.3459 97.7338 77.2687 97.5395 77.2687Z" fill="#FF7B56"/>
<path d="M29.1734 107.009C29.0761 107.024 28.9827 107.058 28.8984 107.109C28.8142 107.16 28.7408 107.227 28.6825 107.306C28.6242 107.385 28.5821 107.475 28.5586 107.571C28.535 107.667 28.5306 107.766 28.5455 107.863C28.5711 108.02 28.6455 108.166 28.7582 108.278C28.8709 108.391 29.0161 108.465 29.1734 108.491C29.3509 108.465 29.513 108.375 29.6301 108.239C29.7472 108.103 29.8116 107.93 29.8116 107.75C29.8116 107.571 29.7472 107.397 29.6301 107.261C29.513 107.125 29.3509 107.036 29.1734 107.009Z" fill="#FF7B56"/>
<path d="M197.057 110.579C196.879 110.605 196.717 110.695 196.6 110.831C196.483 110.967 196.418 111.14 196.418 111.32C196.418 111.499 196.483 111.673 196.6 111.809C196.717 111.945 196.879 112.034 197.057 112.061C197.154 112.046 197.247 112.012 197.331 111.961C197.415 111.91 197.488 111.843 197.546 111.764C197.604 111.684 197.645 111.594 197.668 111.499C197.691 111.403 197.695 111.304 197.679 111.207C197.655 111.05 197.581 110.905 197.469 110.792C197.358 110.679 197.213 110.605 197.057 110.579Z" fill="#FF7B56"/>
<path d="M11.9589 98.9613C11.8427 98.9366 11.7217 98.9501 11.6138 98.9998C11.5059 99.0496 11.4169 99.1328 11.3602 99.2372C11.3035 99.3416 11.2821 99.4616 11.2992 99.5792C11.3162 99.6967 11.3708 99.8056 11.4548 99.8896C11.5388 99.9737 11.6477 100.028 11.7653 100.045C11.8829 100.062 12.0028 100.041 12.1072 99.9842C12.2116 99.9275 12.2949 99.8386 12.3446 99.7307C12.3943 99.6228 12.4078 99.5017 12.3831 99.3855C12.361 99.2814 12.3091 99.1859 12.2338 99.1106C12.1585 99.0353 12.0631 98.9835 11.9589 98.9613Z" fill="#FF7B56"/>
<path d="M214.106 129.038C213.99 129.012 213.868 129.024 213.76 129.073C213.651 129.122 213.561 129.204 213.504 129.308C213.446 129.413 213.424 129.532 213.44 129.65C213.456 129.768 213.51 129.878 213.593 129.962C213.677 130.047 213.786 130.103 213.903 130.12C214.021 130.138 214.141 130.117 214.246 130.061C214.351 130.004 214.435 129.916 214.485 129.808C214.535 129.7 214.549 129.579 214.524 129.462C214.503 129.359 214.452 129.264 214.377 129.189C214.303 129.113 214.209 129.061 214.106 129.038Z" fill="#FF7B56"/>
<path d="M152.851 19.5228C152.735 19.498 152.614 19.5116 152.506 19.5613C152.398 19.611 152.309 19.6943 152.252 19.7987C152.196 19.9031 152.174 20.023 152.191 20.1406C152.208 20.2582 152.263 20.3671 152.347 20.4511C152.431 20.5351 152.54 20.5897 152.657 20.6067C152.775 20.6238 152.895 20.6023 152.999 20.5456C153.104 20.4889 153.187 20.4 153.237 20.2921C153.286 20.1842 153.3 20.0631 153.275 19.9469C153.253 19.8428 153.201 19.7473 153.126 19.6721C153.051 19.5968 152.955 19.5449 152.851 19.5228Z" fill="#FF7B56"/>
<path d="M79.9456 198.352C79.8101 198.382 79.6912 198.463 79.6126 198.577C79.5339 198.692 79.5014 198.831 79.5214 198.969C79.5263 199.032 79.5449 199.094 79.5758 199.149C79.6067 199.205 79.6492 199.253 79.7005 199.29C79.7517 199.328 79.8105 199.354 79.8727 199.366C79.935 199.379 79.9992 199.378 80.0611 199.364C80.1229 199.349 80.1809 199.322 80.2311 199.283C80.2812 199.244 80.3224 199.194 80.3517 199.138C80.381 199.082 80.3978 199.02 80.4009 198.956C80.404 198.893 80.3934 198.829 80.3697 198.77C80.3466 198.667 80.2944 198.573 80.2191 198.499C80.1439 198.425 80.049 198.374 79.9456 198.352Z" fill="#FF7B56"/>
<path d="M63.6125 188.745C63.3184 188.711 63.0212 188.77 62.762 188.913C62.5028 189.056 62.2945 189.276 62.1659 189.543C62.0373 189.809 61.9948 190.109 62.0443 190.401C62.0937 190.693 62.2328 190.962 62.4421 191.171C62.6513 191.381 62.9205 191.52 63.2124 191.569C63.5042 191.619 63.8042 191.576 64.0707 191.447C64.3373 191.319 64.5573 191.111 64.7002 190.851C64.8432 190.592 64.9019 190.295 64.8684 190.001C64.8319 189.68 64.6878 189.382 64.4597 189.154C64.2316 188.926 63.933 188.781 63.6125 188.745Z" fill="#FF7B56"/>
</g>
<defs>
<clipPath id="clip0_646_3058">
<rect width="220.76" height="225.888" fill="white" transform="translate(0 0.942505)"/>
</clipPath>
</defs>
</svg>
