<svg width="282" height="226" viewBox="0 0 282 226" fill="none" xmlns="http://www.w3.org/2000/svg">
<g clip-path="url(#clip0_642_2989)">
<path d="M252.338 103.132C253.333 109.926 251.789 116.848 248.002 122.575C243.792 128.931 237.052 133.052 231.089 137.772C213.005 152.146 203.619 171.911 198.291 193.884C196.271 202.197 193.428 209.179 186.455 214.587C173.44 224.671 149.804 227.469 134.009 224.099C103.231 217.528 69.6458 202.644 44.3656 173.565C23.698 149.786 27.9888 117.319 58.7667 111.106C75.1256 107.808 87.6138 98.5019 93.0399 82.5006C99.6103 63.0845 94.7473 42.4526 99.8695 23.1259C101.908 15.4471 106.261 8.10792 113.028 3.94222C120.358 -0.527419 129.682 -0.849226 138.058 1.26044C156.509 5.99826 172.591 17.226 187.635 28.4805C202.68 39.7351 218.029 51.6154 231.035 65.2567C240.1 74.8217 250.604 88.9994 252.338 103.132Z" fill="#EEF0F4"/>
<path d="M127.269 129.825V129.173L209.242 128.636L233.127 145.898L277.556 145.612V146.264L232.922 146.55L209.036 129.289L127.269 129.825Z" fill="#BEC4CE"/>
<path d="M127.295 134.313V133.66L206.399 133.15L206.497 133.204L230.293 150.412L261.295 150.207V150.859L230.079 151.065L206.193 133.803L127.295 134.313Z" fill="#BEC4CE"/>
<path d="M236.499 123.029L128.065 124.113L128.072 124.766L236.505 123.681L236.499 123.029Z" fill="#BEC4CE"/>
<path d="M235.336 124.47C235.332 124.098 235.44 123.732 235.644 123.421C235.849 123.109 236.142 122.866 236.486 122.722C236.83 122.577 237.209 122.539 237.575 122.611C237.94 122.682 238.276 122.862 238.54 123.125C238.804 123.389 238.983 123.725 239.055 124.091C239.127 124.457 239.088 124.835 238.944 125.179C238.799 125.523 238.556 125.816 238.245 126.021C237.933 126.226 237.568 126.333 237.195 126.33V126.33C236.702 126.327 236.231 126.131 235.883 125.783C235.535 125.434 235.338 124.963 235.336 124.47V124.47ZM238.429 124.47C238.429 124.228 238.356 123.991 238.221 123.789C238.087 123.588 237.895 123.431 237.67 123.338C237.446 123.246 237.199 123.222 236.962 123.27C236.724 123.318 236.506 123.435 236.335 123.608C236.164 123.78 236.048 123.999 236.002 124.237C235.955 124.475 235.981 124.722 236.075 124.945C236.169 125.169 236.327 125.36 236.53 125.493C236.733 125.627 236.97 125.697 237.213 125.695V125.695C237.375 125.696 237.536 125.665 237.686 125.603C237.836 125.54 237.971 125.448 238.085 125.332C238.198 125.216 238.287 125.079 238.346 124.927C238.405 124.776 238.433 124.615 238.429 124.453V124.47Z" fill="#BEC4CE"/>
<path d="M127.215 121.342L127.206 120.689L182.236 120.332L204.459 108.362L244.525 108.103V108.755L204.62 109.014L182.397 120.984L127.215 121.342Z" fill="#BEC4CE"/>
<path d="M244.194 108.424C244.194 107.927 244.392 107.449 244.744 107.097C245.096 106.745 245.573 106.547 246.071 106.547C246.569 106.547 247.047 106.745 247.399 107.097C247.751 107.449 247.949 107.927 247.949 108.424C247.949 108.922 247.751 109.4 247.399 109.752C247.047 110.104 246.569 110.302 246.071 110.302C245.573 110.302 245.096 110.104 244.744 109.752C244.392 109.4 244.194 108.922 244.194 108.424V108.424ZM247.287 108.424C247.285 108.182 247.212 107.946 247.076 107.746C246.94 107.545 246.747 107.39 246.523 107.299C246.298 107.208 246.052 107.185 245.815 107.234C245.578 107.283 245.36 107.401 245.19 107.574C245.02 107.746 244.905 107.965 244.86 108.203C244.814 108.441 244.84 108.687 244.934 108.91C245.029 109.133 245.187 109.324 245.389 109.457C245.592 109.59 245.829 109.66 246.071 109.658V109.658C246.231 109.657 246.389 109.624 246.536 109.562C246.683 109.5 246.816 109.409 246.928 109.296C247.04 109.182 247.129 109.047 247.189 108.899C247.249 108.751 247.279 108.593 247.278 108.433L247.287 108.424Z" fill="#BEC4CE"/>
<path d="M127.188 117.203L127.179 116.55L179.814 116.211L204.379 102.113L230.803 101.943V102.596L204.566 102.757L179.992 116.854L127.188 117.203Z" fill="#BEC4CE"/>
<path d="M230.472 102.265C230.469 101.894 230.575 101.53 230.779 101.219C230.982 100.909 231.273 100.665 231.615 100.52C231.956 100.375 232.333 100.334 232.698 100.403C233.063 100.472 233.399 100.647 233.664 100.907C233.929 101.168 234.111 101.5 234.187 101.864C234.263 102.227 234.229 102.605 234.091 102.949C233.952 103.294 233.714 103.589 233.407 103.798C233.101 104.008 232.739 104.121 232.367 104.125V104.125C231.871 104.125 231.394 103.93 231.04 103.582C230.685 103.235 230.482 102.762 230.472 102.265V102.265ZM233.574 102.265C233.574 102.104 233.542 101.944 233.48 101.795C233.418 101.645 233.327 101.51 233.212 101.396C233.098 101.282 232.962 101.192 232.812 101.131C232.662 101.07 232.502 101.039 232.341 101.041C232.016 101.041 231.704 101.17 231.475 101.399C231.245 101.629 231.116 101.94 231.116 102.265C231.116 102.59 231.245 102.902 231.475 103.131C231.704 103.361 232.016 103.49 232.341 103.49C232.507 103.497 232.674 103.47 232.83 103.411C232.986 103.352 233.128 103.261 233.248 103.145C233.368 103.028 233.462 102.889 233.526 102.734C233.59 102.58 233.621 102.414 233.619 102.247L233.574 102.265Z" fill="#BEC4CE"/>
<path d="M277.591 146.032C277.588 145.664 277.694 145.303 277.895 144.995C278.097 144.687 278.386 144.446 278.725 144.302C279.064 144.159 279.438 144.119 279.799 144.188C280.161 144.257 280.494 144.431 280.756 144.69C281.018 144.948 281.198 145.279 281.272 145.639C281.346 146 281.312 146.374 281.173 146.715C281.034 147.056 280.797 147.348 280.492 147.554C280.187 147.761 279.828 147.872 279.46 147.873V147.873C278.97 147.876 278.5 147.684 278.152 147.341C277.803 146.998 277.605 146.53 277.6 146.041L277.591 146.032ZM280.658 146.032C280.658 145.71 280.529 145.4 280.301 145.172C280.073 144.944 279.764 144.816 279.442 144.816C279.119 144.816 278.81 144.944 278.582 145.172C278.354 145.4 278.226 145.71 278.226 146.032C278.226 146.354 278.354 146.664 278.582 146.892C278.81 147.12 279.119 147.248 279.442 147.248C279.764 147.248 280.073 147.12 280.301 146.892C280.529 146.664 280.658 146.354 280.658 146.032Z" fill="#BEC4CE"/>
<path d="M261.509 150.582C261.504 150.214 261.608 149.852 261.809 149.543C262.01 149.234 262.298 148.991 262.636 148.846C262.975 148.701 263.349 148.66 263.712 148.728C264.074 148.796 264.408 148.97 264.671 149.228C264.934 149.486 265.114 149.816 265.189 150.177C265.264 150.538 265.23 150.913 265.092 151.254C264.953 151.596 264.716 151.888 264.411 152.095C264.106 152.302 263.746 152.413 263.378 152.415V152.415C263.135 152.417 262.894 152.371 262.668 152.281C262.443 152.19 262.238 152.055 262.064 151.885C261.891 151.715 261.752 151.512 261.657 151.289C261.562 151.065 261.512 150.825 261.509 150.582ZM264.567 150.582C264.567 150.341 264.495 150.106 264.361 149.906C264.227 149.706 264.037 149.55 263.814 149.458C263.591 149.366 263.347 149.343 263.11 149.39C262.874 149.438 262.658 149.555 262.488 149.726C262.318 149.897 262.203 150.114 262.157 150.35C262.112 150.587 262.137 150.832 262.23 151.054C262.324 151.276 262.481 151.465 262.682 151.597C262.883 151.73 263.119 151.8 263.36 151.798C263.521 151.798 263.681 151.766 263.83 151.703C263.979 151.64 264.114 151.548 264.226 151.432C264.339 151.316 264.427 151.179 264.485 151.028C264.544 150.877 264.571 150.717 264.567 150.555V150.582Z" fill="#BEC4CE"/>
<path d="M127.414 134.374L128.066 134.369L127.951 116.608L127.299 116.612L127.414 134.374Z" fill="#BEC4CE"/>
<path d="M127.26 178.589V178.035L197.281 177.579L217.681 192.32L255.628 192.078L255.637 192.632L217.511 192.883L197.102 178.133L127.26 178.589Z" fill="#BEC4CE"/>
<path d="M255.324 192.355C255.32 192.037 255.411 191.724 255.585 191.457C255.76 191.191 256.009 190.982 256.302 190.857C256.596 190.732 256.919 190.697 257.232 190.757C257.545 190.816 257.834 190.967 258.061 191.19C258.288 191.414 258.444 191.699 258.508 192.011C258.573 192.323 258.543 192.648 258.423 192.943C258.304 193.238 258.099 193.491 257.835 193.67C257.571 193.848 257.26 193.945 256.942 193.946C256.519 193.949 256.112 193.784 255.811 193.487C255.509 193.191 255.337 192.787 255.333 192.364L255.324 192.355ZM258.005 192.355C258.005 192.218 257.978 192.081 257.925 191.954C257.872 191.827 257.794 191.712 257.695 191.616C257.597 191.519 257.481 191.443 257.353 191.392C257.225 191.341 257.088 191.316 256.951 191.318C256.744 191.32 256.542 191.383 256.371 191.5C256.2 191.616 256.067 191.78 255.99 191.972C255.912 192.164 255.893 192.374 255.935 192.577C255.978 192.78 256.079 192.965 256.226 193.11C256.374 193.255 256.561 193.353 256.764 193.392C256.967 193.43 257.178 193.408 257.368 193.327C257.558 193.246 257.721 193.111 257.834 192.938C257.948 192.765 258.007 192.562 258.005 192.355Z" fill="#BEC4CE"/>
<path d="M127.286 182.424V181.87L194.849 181.431L194.93 181.476L215.258 196.172L241.745 196.002V196.557L215.079 196.727L194.68 181.986L127.286 182.424Z" fill="#BEC4CE"/>
<path d="M241.441 196.28C241.439 195.964 241.531 195.654 241.705 195.39C241.879 195.126 242.127 194.92 242.418 194.797C242.71 194.674 243.031 194.64 243.341 194.699C243.652 194.758 243.938 194.908 244.163 195.13C244.388 195.352 244.543 195.635 244.608 195.944C244.672 196.254 244.643 196.575 244.525 196.869C244.407 197.162 244.205 197.413 243.944 197.592C243.683 197.77 243.375 197.867 243.059 197.871V197.871C242.848 197.873 242.639 197.834 242.443 197.755C242.248 197.676 242.069 197.56 241.919 197.412C241.769 197.264 241.649 197.088 241.567 196.893C241.485 196.699 241.442 196.491 241.441 196.28V196.28ZM244.078 196.28C244.078 196.002 243.968 195.736 243.772 195.54C243.576 195.344 243.31 195.234 243.032 195.234C242.755 195.234 242.489 195.344 242.293 195.54C242.096 195.736 241.986 196.002 241.986 196.28C241.986 196.557 242.096 196.823 242.293 197.019C242.489 197.215 242.755 197.326 243.032 197.326V197.326C243.171 197.327 243.309 197.3 243.438 197.247C243.567 197.193 243.683 197.115 243.781 197.016C243.878 196.916 243.955 196.798 244.006 196.669C244.057 196.539 244.082 196.401 244.078 196.262V196.28Z" fill="#BEC4CE"/>
<path d="M219.844 173.75L127.226 174.348L127.229 174.902L219.847 174.304L219.844 173.75Z" fill="#BEC4CE"/>
<path d="M219.567 174.021C219.561 173.702 219.651 173.389 219.824 173.121C219.997 172.853 220.246 172.642 220.539 172.516C220.832 172.39 221.156 172.354 221.47 172.412C221.783 172.47 222.072 172.621 222.3 172.844C222.529 173.067 222.685 173.352 222.75 173.665C222.816 173.977 222.787 174.302 222.667 174.597C222.548 174.893 222.343 175.147 222.079 175.326C221.815 175.505 221.504 175.601 221.185 175.603V175.603C220.975 175.605 220.766 175.566 220.571 175.488C220.376 175.41 220.198 175.294 220.048 175.147C219.898 175 219.778 174.825 219.695 174.632C219.613 174.439 219.569 174.231 219.567 174.021ZM222.248 174.021C222.248 173.814 222.187 173.612 222.072 173.44C221.957 173.268 221.794 173.134 221.603 173.055C221.412 172.975 221.201 172.955 220.998 172.995C220.796 173.035 220.609 173.135 220.463 173.281C220.317 173.428 220.217 173.614 220.177 173.817C220.136 174.02 220.157 174.23 220.236 174.421C220.315 174.612 220.449 174.776 220.621 174.89C220.793 175.005 220.996 175.067 221.203 175.067C221.477 175.057 221.736 174.941 221.925 174.742C222.114 174.543 222.217 174.277 222.213 174.003L222.248 174.021Z" fill="#BEC4CE"/>
<path d="M127.215 171.339V170.785L174.209 170.481L193.196 160.263L227.415 160.04V160.594L193.339 160.818L174.352 171.035L127.215 171.339Z" fill="#BEC4CE"/>
<path d="M227.138 160.308C227.138 159.992 227.232 159.683 227.407 159.42C227.583 159.157 227.832 158.952 228.124 158.831C228.416 158.709 228.737 158.677 229.047 158.738C229.357 158.799 229.642 158.951 229.867 159.173C230.091 159.396 230.244 159.681 230.307 159.99C230.369 160.3 230.339 160.622 230.219 160.914C230.099 161.207 229.896 161.457 229.634 161.634C229.372 161.811 229.063 161.906 228.747 161.908C228.536 161.909 228.327 161.869 228.132 161.789C227.937 161.709 227.76 161.591 227.61 161.443C227.46 161.294 227.342 161.117 227.261 160.922C227.18 160.728 227.138 160.519 227.138 160.308V160.308ZM229.775 160.308C229.774 160.101 229.71 159.899 229.594 159.728C229.478 159.557 229.313 159.425 229.121 159.347C228.93 159.27 228.719 159.251 228.517 159.293C228.314 159.335 228.129 159.436 227.984 159.584C227.839 159.731 227.741 159.918 227.702 160.122C227.663 160.325 227.686 160.535 227.767 160.725C227.847 160.916 227.983 161.078 228.156 161.192C228.329 161.305 228.531 161.365 228.738 161.363V161.363C228.875 161.363 229.01 161.336 229.136 161.283C229.262 161.23 229.376 161.153 229.472 161.055C229.567 160.958 229.643 160.843 229.693 160.716C229.744 160.589 229.769 160.453 229.766 160.317L229.775 160.308Z" fill="#BEC4CE"/>
<path d="M127.188 167.808V167.254L172.144 166.959L193.133 154.918L215.696 154.775L215.705 155.329L193.285 155.472L172.296 167.513L127.188 167.808Z" fill="#BEC4CE"/>
<path d="M215.419 155.052C215.415 154.735 215.506 154.425 215.679 154.16C215.851 153.895 216.099 153.687 216.39 153.562C216.681 153.438 217.002 153.403 217.313 153.461C217.625 153.519 217.911 153.669 218.138 153.89C218.364 154.111 218.519 154.395 218.585 154.704C218.65 155.014 218.622 155.336 218.504 155.63C218.386 155.923 218.184 156.176 217.923 156.354C217.662 156.533 217.353 156.63 217.037 156.634V156.634C216.827 156.636 216.618 156.597 216.423 156.519C216.228 156.441 216.05 156.325 215.9 156.178C215.75 156.031 215.63 155.856 215.547 155.663C215.465 155.469 215.421 155.262 215.419 155.052ZM218.101 155.052C218.102 154.842 218.042 154.637 217.927 154.462C217.811 154.287 217.647 154.151 217.454 154.07C217.26 153.989 217.048 153.967 216.842 154.008C216.637 154.048 216.448 154.149 216.3 154.297C216.152 154.445 216.051 154.634 216.011 154.839C215.97 155.045 215.992 155.257 216.073 155.451C216.154 155.644 216.29 155.808 216.465 155.924C216.64 156.039 216.845 156.099 217.055 156.098C217.329 156.088 217.589 155.971 217.777 155.772C217.966 155.573 218.07 155.308 218.065 155.034L218.101 155.052Z" fill="#BEC4CE"/>
<path d="M154.041 129.825V129.173L72.0594 128.636L48.1826 145.898L3.75439 145.612V146.264L48.3882 146.55L72.2739 129.289L154.041 129.825Z" fill="#BEC4CE"/>
<path d="M154.015 134.313V133.66L74.911 133.15L74.8126 133.204L51.0163 150.412L20.0149 150.207V150.859L51.2308 151.065L75.1166 133.803L154.015 134.313Z" fill="#BEC4CE"/>
<path d="M45.6419 124.144L45.6377 124.796L154.069 125.496L154.073 124.844L45.6419 124.144Z" fill="#BEC4CE"/>
<path d="M45.9656 124.47C45.9691 124.098 45.8616 123.732 45.6567 123.421C45.4518 123.109 45.1588 122.866 44.815 122.722C44.4713 122.577 44.0924 122.539 43.7266 122.611C43.3608 122.682 43.0246 122.862 42.761 123.125C42.4974 123.389 42.3183 123.725 42.2464 124.091C42.1745 124.457 42.2132 124.835 42.3575 125.179C42.5018 125.523 42.7452 125.816 43.0566 126.021C43.368 126.226 43.7334 126.333 44.1062 126.33V126.33C44.5986 126.327 45.0702 126.131 45.4184 125.783C45.7666 125.434 45.9632 124.963 45.9656 124.47V124.47ZM42.8726 124.47C42.8726 124.228 42.9447 123.991 43.0796 123.789C43.2146 123.588 43.4064 123.431 43.6307 123.338C43.855 123.246 44.1017 123.222 44.3395 123.27C44.5773 123.318 44.7955 123.435 44.9664 123.608C45.1373 123.78 45.2533 123.999 45.2995 124.237C45.3458 124.475 45.3202 124.722 45.2262 124.945C45.1321 125.169 44.9737 125.36 44.7712 125.493C44.5686 125.627 44.3309 125.697 44.0883 125.695V125.695C43.9261 125.696 43.7652 125.665 43.6154 125.603C43.4655 125.54 43.3298 125.448 43.2163 125.332C43.1028 125.216 43.0138 125.079 42.9548 124.927C42.8957 124.776 42.8678 124.615 42.8726 124.453V124.47Z" fill="#BEC4CE"/>
<path d="M154.095 121.342V120.689L99.074 120.332L76.851 108.362L36.7852 108.103V108.755L76.6901 109.014L98.9131 120.984L154.095 121.342Z" fill="#BEC4CE"/>
<path d="M37.1068 108.424C37.1068 107.927 36.909 107.449 36.557 107.097C36.2049 106.745 35.7274 106.547 35.2295 106.547C34.7317 106.547 34.2542 106.745 33.9021 107.097C33.5501 107.449 33.3523 107.927 33.3523 108.424C33.3523 108.671 33.4008 108.915 33.4952 109.143C33.5895 109.371 33.7278 109.578 33.9021 109.752C34.0765 109.926 34.2834 110.064 34.5111 110.159C34.7389 110.253 34.983 110.302 35.2295 110.302C35.4761 110.302 35.7202 110.253 35.9479 110.159C36.1757 110.064 36.3826 109.926 36.557 109.752C36.7313 109.578 36.8696 109.371 36.9639 109.143C37.0582 108.915 37.1068 108.671 37.1068 108.424ZM34.0138 108.424C34.0156 108.182 34.0891 107.946 34.2252 107.746C34.3612 107.545 34.5536 107.39 34.7781 107.299C35.0025 107.208 35.2489 107.185 35.4861 107.234C35.7233 107.283 35.9407 107.401 36.1107 107.574C36.2807 107.746 36.3958 107.965 36.4413 108.203C36.4868 108.441 36.4608 108.687 36.3665 108.91C36.2721 109.133 36.1138 109.324 35.9114 109.457C35.709 109.59 35.4718 109.66 35.2295 109.658V109.658C35.0699 109.657 34.912 109.624 34.765 109.562C34.6179 109.5 34.4846 109.409 34.3725 109.296C34.2604 109.182 34.1719 109.047 34.1119 108.899C34.0518 108.751 34.0216 108.593 34.0227 108.433L34.0138 108.424Z" fill="#BEC4CE"/>
<path d="M154.122 117.203V116.55L101.488 116.211L76.9315 102.113L50.507 101.943L50.498 102.596L76.7438 102.757L101.318 116.854L154.122 117.203Z" fill="#BEC4CE"/>
<path d="M50.8286 102.265C50.8322 101.894 50.7255 101.53 50.5222 101.219C50.3188 100.909 50.028 100.665 49.6863 100.52C49.3447 100.375 48.9676 100.334 48.6028 100.403C48.2379 100.472 47.9018 100.647 47.6367 100.907C47.3717 101.168 47.1898 101.5 47.1139 101.864C47.038 102.227 47.0715 102.605 47.2103 102.949C47.3491 103.294 47.5869 103.589 47.8937 103.798C48.2004 104.008 48.5622 104.121 48.9335 104.125V104.125C49.43 104.125 49.9067 103.93 50.2611 103.582C50.6155 103.235 50.8193 102.762 50.8286 102.265V102.265ZM47.7267 102.265C47.7267 102.104 47.7587 101.944 47.8208 101.795C47.8829 101.645 47.9739 101.51 48.0886 101.396C48.2032 101.282 48.3393 101.192 48.4889 101.131C48.6385 101.07 48.7987 101.039 48.9603 101.041C49.2851 101.041 49.5966 101.17 49.8263 101.399C50.056 101.629 50.185 101.94 50.185 102.265C50.185 102.59 50.056 102.902 49.8263 103.131C49.5966 103.361 49.2851 103.49 48.9603 103.49C48.7972 103.491 48.6355 103.46 48.4847 103.398C48.3339 103.336 48.1971 103.244 48.0822 103.128C47.9672 103.012 47.8766 102.875 47.8156 102.724C47.7545 102.572 47.7243 102.41 47.7267 102.247V102.265Z" fill="#BEC4CE"/>
<path d="M3.70986 146.032C3.7134 145.664 3.60759 145.303 3.40583 144.995C3.20408 144.687 2.91547 144.446 2.57656 144.302C2.23766 144.159 1.86371 144.119 1.50211 144.188C1.14051 144.257 0.807521 144.431 0.545343 144.69C0.283165 144.948 0.103599 145.279 0.0293872 145.639C-0.0448243 146 -0.0103411 146.374 0.128477 146.715C0.267295 147.056 0.5042 147.348 0.809166 147.554C1.11413 147.761 1.47344 147.872 1.84156 147.873V147.873C2.33078 147.876 2.80105 147.684 3.14949 147.341C3.49794 146.998 3.69621 146.53 3.70093 146.041L3.70986 146.032ZM0.643689 146.032C0.643689 145.71 0.771779 145.4 0.999775 145.172C1.22777 144.944 1.537 144.816 1.85943 144.816C2.18187 144.816 2.4911 144.944 2.71909 145.172C2.94709 145.4 3.07517 145.71 3.07517 146.032C3.07517 146.354 2.94709 146.664 2.71909 146.892C2.4911 147.12 2.18187 147.248 1.85943 147.248C1.537 147.248 1.22777 147.12 0.999775 146.892C0.771779 146.664 0.643689 146.354 0.643689 146.032Z" fill="#BEC4CE"/>
<path d="M19.7915 150.582C19.7969 150.214 19.6926 149.852 19.4919 149.543C19.2912 149.234 19.0033 148.991 18.6645 148.846C18.3258 148.701 17.9516 148.66 17.5894 148.728C17.2273 148.796 16.8934 148.97 16.6304 149.228C16.3673 149.486 16.1868 149.816 16.1119 150.177C16.0369 150.538 16.0709 150.913 16.2094 151.254C16.3479 151.596 16.5848 151.888 16.8899 152.095C17.1951 152.302 17.5547 152.413 17.9232 152.415V152.415C18.1662 152.417 18.4073 152.371 18.6327 152.281C18.8581 152.19 19.0635 152.055 19.2369 151.885C19.4104 151.715 19.5487 151.512 19.6439 151.289C19.739 151.065 19.7892 150.825 19.7915 150.582V150.582ZM16.7343 150.582C16.7343 150.341 16.8059 150.106 16.9398 149.906C17.0738 149.706 17.2642 149.55 17.4869 149.458C17.7096 149.366 17.9545 149.343 18.1905 149.39C18.4266 149.438 18.6432 149.555 18.8129 149.726C18.9825 149.897 19.0976 150.114 19.1435 150.35C19.1894 150.587 19.1641 150.832 19.0707 151.054C18.9773 151.276 18.8201 151.465 18.619 151.597C18.4179 151.73 18.1819 151.8 17.9411 151.798V151.798C17.7796 151.798 17.6197 151.766 17.4709 151.703C17.3221 151.64 17.1874 151.548 17.0749 151.432C16.9623 151.316 16.8742 151.179 16.8157 151.028C16.7572 150.877 16.7295 150.717 16.7343 150.555V150.582Z" fill="#BEC4CE"/>
<path d="M154.017 116.617L153.364 116.613L153.249 134.375L153.902 134.379L154.017 116.617Z" fill="#BEC4CE"/>
<path d="M154.05 178.589V178.035L84.0292 177.579L63.6297 192.32L25.6825 192.078L25.6736 192.632L63.7996 192.883L84.2079 178.133L154.05 178.589Z" fill="#BEC4CE"/>
<path d="M25.9776 192.355C25.9811 192.037 25.89 191.724 25.7157 191.457C25.5415 191.191 25.292 190.982 24.9988 190.857C24.7056 190.732 24.382 190.697 24.069 190.757C23.7559 190.816 23.4675 190.967 23.2404 191.19C23.0132 191.414 22.8574 191.699 22.7929 192.011C22.7283 192.323 22.7579 192.648 22.8777 192.943C22.9976 193.238 23.2024 193.491 23.4662 193.67C23.73 193.848 24.0409 193.945 24.3596 193.946V193.946C24.7824 193.949 25.189 193.784 25.4905 193.487C25.792 193.191 25.9639 192.787 25.9686 192.364L25.9776 192.355ZM23.2958 192.355C23.2958 192.218 23.3232 192.081 23.3764 191.954C23.4296 191.827 23.5076 191.712 23.6058 191.616C23.704 191.519 23.8204 191.443 23.9483 191.392C24.0762 191.341 24.2129 191.316 24.3506 191.318C24.5575 191.32 24.7591 191.383 24.9301 191.5C25.1011 191.616 25.2338 191.78 25.3113 191.972C25.3888 192.164 25.4077 192.374 25.3657 192.577C25.3236 192.78 25.2224 192.965 25.0749 193.11C24.9273 193.255 24.7401 193.353 24.5369 193.392C24.3337 193.43 24.1236 193.408 23.9332 193.327C23.7427 193.246 23.5805 193.111 23.4671 192.938C23.3536 192.765 23.294 192.562 23.2958 192.355V192.355Z" fill="#BEC4CE"/>
<path d="M154.024 182.424V181.87L86.4517 181.431L86.3802 181.476L66.0523 196.172L39.5652 196.002V196.557L66.231 196.727L86.6305 181.986L154.024 182.424Z" fill="#BEC4CE"/>
<path d="M39.8601 196.28C39.8619 195.964 39.77 195.654 39.596 195.39C39.4221 195.126 39.1738 194.92 38.8826 194.797C38.5915 194.674 38.2704 194.64 37.9599 194.699C37.6494 194.758 37.3634 194.908 37.1381 195.13C36.9127 195.352 36.758 195.635 36.6936 195.944C36.6291 196.254 36.6577 196.575 36.7758 196.869C36.8939 197.162 37.0962 197.413 37.3572 197.592C37.6181 197.77 37.9261 197.867 38.2421 197.871V197.871C38.453 197.873 38.6623 197.834 38.8579 197.755C39.0535 197.676 39.2317 197.56 39.382 197.412C39.5324 197.264 39.652 197.088 39.7341 196.893C39.8161 196.699 39.859 196.491 39.8601 196.28V196.28ZM37.2231 196.28C37.2231 196.002 37.3333 195.736 37.5294 195.54C37.7255 195.344 37.9916 195.234 38.269 195.234C38.5463 195.234 38.8124 195.344 39.0085 195.54C39.2047 195.736 39.3149 196.002 39.3149 196.28C39.3149 196.557 39.2047 196.823 39.0085 197.019C38.8124 197.215 38.5463 197.326 38.269 197.326V197.326C38.1297 197.327 37.9917 197.3 37.8631 197.247C37.7344 197.193 37.6179 197.115 37.5202 197.016C37.4226 196.916 37.346 196.798 37.295 196.669C37.2439 196.539 37.2195 196.401 37.2231 196.262V196.28Z" fill="#BEC4CE"/>
<path d="M61.4606 173.734L61.457 174.288L154.075 174.886L154.079 174.332L61.4606 173.734Z" fill="#BEC4CE"/>
<path d="M61.7348 174.021C61.7401 173.702 61.6505 173.389 61.4773 173.121C61.3042 172.853 61.0553 172.642 60.7623 172.516C60.4693 172.39 60.1455 172.354 59.8318 172.412C59.5182 172.47 59.229 172.621 59.0009 172.844C58.7729 173.067 58.6162 173.352 58.5509 173.665C58.4856 173.977 58.5146 174.302 58.6342 174.597C58.7538 174.893 58.9586 175.147 59.2225 175.326C59.4865 175.505 59.7978 175.601 60.1168 175.603V175.603C60.3269 175.605 60.5354 175.566 60.7305 175.488C60.9255 175.41 61.1032 175.294 61.2535 175.147C61.4037 175 61.5236 174.825 61.6062 174.632C61.6887 174.439 61.7324 174.231 61.7348 174.021ZM59.053 174.021C59.053 173.814 59.1143 173.612 59.2292 173.44C59.3442 173.268 59.5075 173.134 59.6986 173.055C59.8897 172.975 60.1 172.955 60.3029 172.995C60.5058 173.035 60.6922 173.135 60.8384 173.281C60.9847 173.428 61.0843 173.614 61.1247 173.817C61.165 174.02 61.1443 174.23 61.0652 174.421C60.986 174.612 60.852 174.776 60.68 174.89C60.508 175.005 60.3057 175.067 60.0989 175.067C59.8246 175.057 59.565 174.941 59.376 174.742C59.1871 174.543 59.0839 174.277 59.0887 174.003L59.053 174.021Z" fill="#BEC4CE"/>
<path d="M154.095 171.339V170.785L107.101 170.481L88.1142 160.263L53.8947 160.04L53.8857 160.594L87.9712 160.818L106.958 171.035L154.095 171.339Z" fill="#BEC4CE"/>
<path d="M54.1631 160.308C54.1631 159.992 54.0695 159.683 53.8941 159.42C53.7186 159.157 53.4693 158.952 53.1774 158.831C52.8855 158.709 52.5643 158.677 52.2541 158.738C51.944 158.799 51.6588 158.951 51.4347 159.173C51.2106 159.396 51.0575 159.681 50.9947 159.99C50.932 160.3 50.9624 160.622 51.0821 160.914C51.2019 161.207 51.4056 161.457 51.6675 161.634C51.9295 161.811 52.238 161.906 52.5541 161.908C52.765 161.909 52.974 161.869 53.1692 161.789C53.3643 161.709 53.5418 161.591 53.6913 161.443C53.8409 161.294 53.9595 161.117 54.0405 160.922C54.1215 160.728 54.1632 160.519 54.1631 160.308V160.308ZM51.5261 160.308C51.5278 160.101 51.5909 159.899 51.7073 159.728C51.8237 159.557 51.9882 159.425 52.18 159.347C52.3717 159.27 52.5822 159.251 52.7847 159.293C52.9873 159.335 53.1728 159.436 53.3178 159.584C53.4628 159.731 53.5608 159.918 53.5994 160.122C53.638 160.325 53.6155 160.535 53.5348 160.725C53.454 160.916 53.3185 161.078 53.1456 161.192C52.9726 161.305 52.7699 161.365 52.563 161.363V161.363C52.4265 161.363 52.2913 161.336 52.1654 161.283C52.0395 161.23 51.9254 161.153 51.8297 161.055C51.734 160.958 51.6587 160.843 51.6081 160.716C51.5575 160.589 51.5326 160.453 51.535 160.317L51.5261 160.308Z" fill="#BEC4CE"/>
<path d="M154.122 167.808V167.254L109.166 166.959L88.1769 154.918L65.6142 154.775L65.6052 155.329L88.0249 155.472L109.014 167.513L154.122 167.808Z" fill="#BEC4CE"/>
<path d="M65.8825 155.052C65.886 154.735 65.7956 154.425 65.6228 154.16C65.4499 153.895 65.2023 153.687 64.9113 153.562C64.6203 153.438 64.2989 153.403 63.9879 153.461C63.6768 153.519 63.39 153.669 63.1637 153.89C62.9375 154.111 62.7819 154.395 62.7167 154.704C62.6515 155.014 62.6796 155.336 62.7974 155.63C62.9152 155.923 63.1175 156.176 63.3786 156.354C63.6398 156.533 63.9481 156.63 64.2645 156.634V156.634C64.4747 156.636 64.6832 156.597 64.8782 156.519C65.0733 156.441 65.251 156.325 65.4012 156.178C65.5515 156.031 65.6713 155.856 65.7539 155.663C65.8365 155.469 65.8802 155.262 65.8825 155.052ZM63.2007 155.052C63.199 154.842 63.2596 154.637 63.3748 154.462C63.49 154.287 63.6547 154.151 63.8478 154.07C64.0409 153.989 64.2537 153.967 64.4591 154.008C64.6646 154.048 64.8534 154.149 65.0014 154.297C65.1495 154.445 65.2501 154.634 65.2905 154.839C65.331 155.045 65.3093 155.257 65.2284 155.451C65.1474 155.644 65.0108 155.808 64.836 155.924C64.6612 156.039 64.456 156.099 64.2466 156.098C63.9724 156.088 63.7128 155.971 63.5238 155.772C63.3348 155.573 63.2317 155.308 63.2365 155.034L63.2007 155.052Z" fill="#BEC4CE"/>
<path d="M191.515 66.1864V114.87H177.758V66.1864C177.758 47.6732 163.696 32.6194 146.399 32.6194C129.101 32.6194 115.04 47.6732 115.04 66.1864V114.87H101.318V66.1864C101.318 39.6725 121.556 18.1289 146.434 18.1289C171.312 18.1289 191.515 39.6725 191.515 66.1864Z" fill="#353538"/>
<path d="M101.282 78.8444L115.04 79.3986V114.87H101.282V78.8444Z" fill="#263238"/>
<path d="M191.515 82.5184V114.87H177.758V81.9553L191.515 82.5184Z" fill="#263238"/>
<path d="M209.152 87.149H83.6538V201.009H209.152V87.149Z" fill="#FF7B56"/>
<path opacity="0.1" d="M209.143 87.149H146.398V201.009H209.143V87.149Z" fill="black"/>
<path d="M151.709 148.249L156.956 173.163H134.661L139.918 148.249C137.868 146.969 136.29 145.056 135.424 142.8C134.557 140.543 134.449 138.066 135.114 135.743C135.78 133.419 137.185 131.376 139.115 129.921C141.045 128.467 143.396 127.68 145.813 127.68C148.23 127.68 150.581 128.467 152.511 129.921C154.442 131.376 155.846 133.419 156.512 135.743C157.178 138.066 157.069 140.543 156.203 142.8C155.336 145.056 153.759 146.969 151.709 148.249V148.249Z" fill="#263238"/>
</g>
<defs>
<clipPath id="clip0_642_2989">
<rect width="281.31" height="225.484" fill="white"/>
</clipPath>
</defs>
</svg>
