<?xml version="1.0" encoding="UTF-8"?>
<svg id="Capa_1" data-name="Capa 1" xmlns="http://www.w3.org/2000/svg" width="1076.02" height="296.9" viewBox="0 0 1076.02 296.9">
  <defs>
    <style>
      .cls-1 {
        fill: #3d4851;
      }

      .cls-1, .cls-2 {
        stroke-width: 0px;
      }

      .cls-2 {
        fill: #e9492b;
      }
    </style>
  </defs>
  <path class="cls-1" d="m32.02,229.39c-9.7-7.4-18.5-14.1-27.3-20.9-1.5-1.1-2.8-2.6-3.6-4.4-.8-1.7-1.2-3.6-1.1-5.5C.12,166.89.12,135.19.02,103.49c0-4.8,2.1-8.1,5.8-10.9C42.22,64.89,78.82,36.99,115.32,9.19c2.5-1.9,5-3.8,7.5-5.7,6.2-4.6,10.5-4.7,16.6,0l100.6,76.5c5.7,4.3,11.3,8.7,17,13,1.6,1.1,3,2.6,3.9,4.4.9,1.8,1.3,3.7,1.2,5.7-.1,32-.1,64.1,0,96.1,0,3-.3,5.9-2.6,7.7-9.4,7.5-19,14.7-29.3,22.7v-25.8c0-2.7,2.2-3.7,3.9-4.7,5.5-3,6.8-7.4,6.7-13.5-.4-24.2-.2-48.5-.1-72.7,0-3.5-.9-5.8-3.7-8-34.1-25.7-68.2-51.6-102.1-77.6-3-2.3-4.7-2-7.5.2-34,26-68,51.9-102.1,77.7-1.1.7-2.1,1.8-2.7,3s-.9,2.6-.8,4c.1,25.6.1,51.1,0,76.7,0,3.9.9,6.7,4.3,8.5,4.8,2.5,6.4,6.2,6,11.7-.6,6.4-.1,12.9-.1,20.3Z"/>
  <path class="cls-2" d="m211.02,216.29c0,7.5-.1,14.9,0,22.4.1,4.7-1.6,8.2-5.6,10.9-22.3,14.9-44.6,29.8-66.9,44.8-5,3.3-9.7,3.4-14.7,0-22.3-15-44.5-29.9-66.9-44.8-1.8-1.1-3.2-2.6-4.2-4.4s-1.4-3.9-1.3-6c.2-15.3.2-30.6,0-45.8-.1-4.9,1.9-8.1,5.8-10.7,22-14.7,44.1-29.4,66.1-44.2,5.3-3.6,10.3-3.5,15.6.1,21.9,14.8,43.9,29.6,66.1,44.2,4.1,2.8,6.1,6.3,6,11.2-.1,7.3,0,14.8,0,22.3Zm-138.5-1.6c0,6.6.1,12.1-.1,17.6-.1,2.7.9,4.2,3.1,5.6,17.7,11.7,35.3,23.5,52.8,35.4,2.1,1.4,3.5,1.5,5.6,0,17.7-12,35.4-23.8,53.3-35.6,1-.6,1.8-1.4,2.3-2.4s.8-2.1.7-3.3c-.2-10.4-.2-20.9,0-31.4.1-1.2-.1-2.4-.7-3.5s-1.4-2-2.5-2.5c-17.7-11.7-35.3-23.4-52.8-35.3-2.4-1.7-3.9-1.4-6,.1-13.2,9-26.4,17.7-39.6,26.6-5.2,3.5-12.1,6-15.1,11-3.2,5-.6,12.5-1,17.7h0Z"/>
  <path class="cls-2" d="m654.22,260.89l-98.7-107.1c-1,1.9-.6,3.7-.6,5.4,0,31.7-.1,63.4.1,95.1,0,4.4-1.1,6.1-5.5,5.4-1.3-.2-2.7-.2-4,0-2.5.2-3.6-.7-3.4-3.4.2-2.3,0-4.6,0-7v-126.4l100.2,107.9v-95.5c4.3,2.9,7.8,5.2,11.4,7.5,1.4.9,1.2,2.3,1.2,3.6v113c-.2.5-.4,1-.7,1.5Z"/>
  <path class="cls-2" d="m330.22,223.19c0,10.8-.1,21.6.1,32.4.1,3.4-1.1,4.1-4.2,4.1-8.7-.1-8.7.1-8.7-8.6,0-19.9-.1-39.9.1-59.8.1-4.6-1.3-5.7-5.6-5.4-5,.4-10-.1-14.9.1-3,.1-4-.8-3.9-4,.3-9.1-.8-7.3,7.3-7.4,4.3-.1,8.6-.2,13,0,3.3.2,4.2-1,4.2-4.2-.2-13.3.1-26.6-.1-39.9-.1-3.8.8-5.1,4.9-5,19.3.2,38.5.1,57.8.1,7.6-.1,15.2.9,22.6,3.1,14.7,4.5,22.7,15.3,21.9,28.8-.9,14.6-9.8,23.9-25.4,26.8-8.4,1.5-16.8,1.7-25.3,1.7-13.1,0-26.2.1-39.3-.1-3.3,0-4.3,1-4.2,4.2-.2,11.2-.3,22.1-.3,33.1Zm33.2-48.6c9.8-.5,21.6,1,33.3-1,9.2-1.6,14.2-7,14.6-16,.5-9.7-3.7-15.4-12.9-17.9-4.3-1.2-8.8-1.8-13.3-1.9-17.1-.1-34.2,0-51.3-.1-3,0-4,.7-4,3.9.2,9.8.2,19.6,0,29.4-.1,3.3,1.3,3.8,4.1,3.7,9.3-.3,18.5-.2,29.5-.1h0Z"/>
  <path class="cls-2" d="m847.82,192.59c0-20.7.1-41.5-.1-62.2,0-3.8,1-4.7,4.7-4.6,27.7.2,55.4.3,83.2,0,6-.1,4.6,3.3,4.8,6.6.3,3.6,0,5.6-4.8,5.6-23.6-.3-47.1-.1-70.7-.2-3.7,0-5.2.6-5.1,4.8.3,9.3.3,18.6,0,27.9-.1,3.6,1,4.4,4.4,4.4,19.6-.2,39.2.1,58.8-.2,5.1-.1,5.5,2,5.4,6-.1,3.7.3,6.3-5.2,6.2-19.6-.4-39.2-.1-58.8-.3-3.7,0-4.7.9-4.7,4.6.2,17.4.2,34.8,0,52.3,0,3.8,1.1,4.7,4.8,4.7,24.1-.2,48.1.1,72.2-.2,5.2-.1,5,2.3,5,5.9-.1,3.4.5,6.1-4.9,6-28-.3-56.1-.3-84.2,0-4.4,0-5.1-1.4-5-5.3.3-20.9.2-41.5.2-62Z"/>
  <path class="cls-2" d="m1029.52,198.89c0,18.6-.1,37.2.1,55.7,0,3.9-1,5.5-5,4.9-1.1-.2-2.3-.2-3.5,0-3,.4-4.1-.6-4-3.8.3-5.1.1-10.3.1-15.4,0-32.7-.1-65.4.1-98.1,0-3.7-.9-4.7-4.6-4.7-12.6.3-25.2-.1-37.9.2-3.9.1-5.1-1.1-4.5-4.7.2-1,.2-2,0-3-.5-3.5.8-4.4,4.3-4.4,32.4.1,64.7.1,97.1,0,3.6,0,4.4,1,4.3,4.5-.2,7.5,0,7.5-7.6,7.5-11.1,0-22.3.3-33.4-.1-5-.2-5.9,1.5-5.8,6.1.4,18.5.3,36.9.3,55.3Z"/>
  <path class="cls-2" d="m727.72,135.29v24.3c0,27.7.1,55.4-.1,83.1,0,4.1,1,5.4,5.2,5.3,24.1-.2,48.1.1,72.2-.2,5.4-.1,4.6,2.9,4.8,6.2.2,3.6-.1,5.7-4.8,5.6-28.4-.2-56.7-.2-85.1,0-4,0-4.5-1.3-4.5-4.8.1-35.2.1-70.3,0-105.5,0-4.3,1-7.2,4.9-9.1,2.2-1.2,4.3-2.8,7.4-4.9Z"/>
  <path class="cls-2" d="m469.32,192.59c0-20.6.1-41.1-.1-61.7,0-4,.9-5.9,5.1-5.2,1.2.2,2.3.2,3.5,0,3.2-.4,4.4.7,4.3,4.1-.2,7.3-.1,14.6-.1,21.9,0,34.1-.1,68.3.1,102.4,0,4.4-1,6.2-5.5,5.4-1-.2-2-.2-3,0-3.4.5-4.5-.8-4.4-4.3.2-20.8.1-41.7.1-62.6Z"/>
  <path class="cls-2" d="m130.82,243.19c-10.5,0-10.4,0-8.6-10.2.8-4.5,1.1-9.2,2-13.7.3-1.9-.8-2.6-1.7-3.8-4.1-5.6-3.7-11.6,1.1-16,2.1-2,4.8-3.1,7.6-3.1s5.6,1,7.7,3c4.5,4,5.2,10.9,1,16-1.8,2.2-1.5,4.3-1.2,6.5.8,5.7,1.6,11.4,2.6,17.1.5,3,.2,4.8-3.5,4.3-2.4-.2-4.7-.2-7-.1Z"/>
  <path class="cls-1" d="m299.12,82.69V18.09h24.6c12.6,0,20.3,6.4,20.3,17.1,0,7.4-3.2,12.4-9.6,15.1,7.1,2.3,10.8,7.5,10.8,15.2,0,10.7-7.8,17.2-20.5,17.2h-25.6Zm24.1-56.8h-15.3v20.7h15.9c7.2,0,11.3-3.9,11.3-10.6,0-6.5-4.3-10.1-11.9-10.1Zm1.3,28.3h-16.6v20.7h16.6c7.5,0,11.7-3.8,11.7-10.5,0-6.5-4.3-10.2-11.7-10.2Zm40.4-36.1v64.6h-8.7V18.09h8.7Zm8.8,8v-8h47.6v8h-19.4v56.5h-8.7V26.09h-19.5ZM457.42,1.49l-7.7,11.9h-6.5l6.1-11.9s8.1,0,8.1,0Zm-30.5,81.2h-9.1l23.6-64.6h9.7l23.7,64.6h-9.2l-5.8-16.1h-27.1l-5.8,16.1Zm18.2-50.7l-9.8,27h21.9l-9.9-27c-.4-1.2-.9-2.8-1.1-3.7-.2.9-.6,2.4-1.1,3.7Zm62.2,51.6c-18.4,0-30.6-13.2-30.6-33.2s12.6-33.4,31.1-33.4c14.6,0,25.7,8.7,28.1,21.9h-9.4c-2.4-8.4-9.6-13.5-19-13.5-13,0-21.6,9.8-21.6,24.9s8.6,24.9,21.6,24.9c9.5,0,17-5.1,19.4-13h9.3c-2.9,12.9-14.4,21.4-28.9,21.4Zm97.8-33.3c0,19.6-12.9,33.4-31.2,33.4s-30.9-13.7-30.9-33.4,12.8-33.4,31-33.4,31.1,13.8,31.1,33.4Zm-9.2,0c0-15-8.7-24.9-21.9-24.9s-21.8,9.9-21.8,24.9,8.7,25,21.8,25,21.9-10.1,21.9-25Zm29.1,32.4h-8.7V18.09h24.4c13.8,0,22.1,7.3,22.1,19.4,0,8.9-4.5,15.4-12.5,17.9l13.1,27.2h-9.7l-12.1-25.5h-16.5v25.6h-.1Zm0-56.7v23.4h15.7c8.1,0,12.8-4.4,12.8-11.8s-4.8-11.6-12.9-11.6h-15.6Zm52.3,56.7h-9.1l23.6-64.6h9.7l23.7,64.6h-9.2l-5.8-16.1h-27.1l-5.8,16.1Zm18.3-50.7l-9.8,27h21.9l-9.9-27c-.4-1.2-.9-2.8-1.1-3.7-.3.9-.7,2.4-1.1,3.7Z"/>
</svg>