<?xml version="1.0" encoding="utf-8"?>
<!-- Generator: Adobe Illustrator 27.9.3, SVG Export Plug-In . SVG Version: 9.03 Build 53313)  -->
<svg version="1.1" id="Capa_1" xmlns="http://www.w3.org/2000/svg" xmlns:xlink="http://www.w3.org/1999/xlink" x="0px" y="0px"
	 viewBox="0 0 1078 327" style="enable-background:new 0 0 1078 327;" xml:space="preserve">
<style type="text/css">
	.st0{fill:#FFFFFF;}
</style>
<path class="st0" d="M33.1,259.4c-9.7-7.4-18.5-14.1-27.3-20.9c-1.5-1.1-2.8-2.6-3.6-4.4c-0.8-1.7-1.2-3.6-1.1-5.5
	c0.1-31.7,0.1-63.4,0-95.1c0-4.8,2.1-8.1,5.8-10.9C43.3,94.9,79.9,67,116.4,39.2c2.5-1.9,5-3.8,7.5-5.7c6.2-4.6,10.5-4.7,16.6,0
	L241.1,110c5.7,4.3,11.3,8.7,17,13c1.6,1.1,3,2.6,3.9,4.4c0.9,1.8,1.3,3.7,1.2,5.7c-0.1,32-0.1,64.1,0,96.1c0,3-0.3,5.9-2.6,7.7
	c-9.4,7.5-19,14.7-29.3,22.7c0-9.3,0-17.6,0-25.8c0-2.7,2.2-3.7,3.9-4.7c5.5-3,6.8-7.4,6.7-13.5c-0.4-24.2-0.2-48.5-0.1-72.7
	c0-3.5-0.9-5.8-3.7-8C204,109.2,169.9,83.3,136,57.3c-3-2.3-4.7-2-7.5,0.2c-34,26-68,51.9-102.1,77.7c-1.1,0.7-2.1,1.8-2.7,3
	c-0.6,1.2-0.9,2.6-0.8,4c0.1,25.6,0.1,51.1,0,76.7c0,3.9,0.9,6.7,4.3,8.5c4.8,2.5,6.4,6.2,6,11.7C32.6,245.5,33.1,252,33.1,259.4z"
	/>
<path class="st0" d="M212.1,246.3c0,7.5-0.1,14.9,0,22.4c0.1,4.7-1.6,8.2-5.6,10.9c-22.3,14.9-44.6,29.8-66.9,44.8
	c-5,3.3-9.7,3.4-14.7,0c-22.3-15-44.5-29.9-66.9-44.8c-1.8-1.1-3.2-2.6-4.2-4.4c-1-1.8-1.4-3.9-1.3-6c0.2-15.3,0.2-30.6,0-45.8
	c-0.1-4.9,1.9-8.1,5.8-10.7c22-14.7,44.1-29.4,66.1-44.2c5.3-3.6,10.3-3.5,15.6,0.1c21.9,14.8,43.9,29.6,66.1,44.2
	c4.1,2.8,6.1,6.3,6,11.2C212,231.3,212.1,238.8,212.1,246.3z M73.6,244.7c0,6.6,0.1,12.1-0.1,17.6c-0.1,2.7,0.9,4.2,3.1,5.6
	c17.7,11.7,35.3,23.5,52.8,35.4c2.1,1.4,3.5,1.5,5.6,0c17.7-12,35.4-23.8,53.3-35.6c1-0.6,1.8-1.4,2.3-2.4c0.5-1,0.8-2.1,0.7-3.3
	c-0.2-10.4-0.2-20.9,0-31.4c0.1-1.2-0.1-2.4-0.7-3.5s-1.4-2-2.5-2.5c-17.7-11.7-35.3-23.4-52.8-35.3c-2.4-1.7-3.9-1.4-6,0.1
	c-13.2,9-26.4,17.7-39.6,26.6c-5.2,3.5-12.1,6-15.1,11C71.4,232,74,239.5,73.6,244.7L73.6,244.7z"/>
<path class="st0" d="M655.3,290.9l-98.7-107.1c-1,1.9-0.6,3.7-0.6,5.4c0,31.7-0.1,63.4,0.1,95.1c0,4.4-1.1,6.1-5.5,5.4
	c-1.3-0.2-2.7-0.2-4,0c-2.5,0.2-3.6-0.7-3.4-3.4c0.2-2.3,0-4.6,0-7V152.9l100.2,107.9v-95.5c4.3,2.9,7.8,5.2,11.4,7.5
	c1.4,0.9,1.2,2.3,1.2,3.6c0,37.7,0,75.3,0,113C655.8,289.9,655.6,290.4,655.3,290.9z"/>
<path class="st0" d="M331.3,253.2c0,10.8-0.1,21.6,0.1,32.4c0.1,3.4-1.1,4.1-4.2,4.1c-8.7-0.1-8.7,0.1-8.7-8.6
	c0-19.9-0.1-39.9,0.1-59.8c0.1-4.6-1.3-5.7-5.6-5.4c-5,0.4-10-0.1-14.9,0.1c-3,0.1-4-0.8-3.9-4c0.3-9.1-0.8-7.3,7.3-7.4
	c4.3-0.1,8.6-0.2,13,0c3.3,0.2,4.2-1,4.2-4.2c-0.2-13.3,0.1-26.6-0.1-39.9c-0.1-3.8,0.8-5.1,4.9-5c19.3,0.2,38.5,0.1,57.8,0.1
	c7.6-0.1,15.2,0.9,22.6,3.1c14.7,4.5,22.7,15.3,21.9,28.8c-0.9,14.6-9.8,23.9-25.4,26.8c-8.4,1.5-16.8,1.7-25.3,1.7
	c-13.1,0-26.2,0.1-39.3-0.1c-3.3,0-4.3,1-4.2,4.2C331.4,231.3,331.3,242.2,331.3,253.2z M364.5,204.6c9.8-0.5,21.6,1,33.3-1
	c9.2-1.6,14.2-7,14.6-16c0.5-9.7-3.7-15.4-12.9-17.9c-4.3-1.2-8.8-1.8-13.3-1.9c-17.1-0.1-34.2,0-51.3-0.1c-3,0-4,0.7-4,3.9
	c0.2,9.8,0.2,19.6,0,29.4c-0.1,3.3,1.3,3.8,4.1,3.7C344.3,204.4,353.5,204.5,364.5,204.6L364.5,204.6z"/>
<path class="st0" d="M848.9,222.6c0-20.7,0.1-41.5-0.1-62.2c0-3.8,1-4.7,4.7-4.6c27.7,0.2,55.4,0.3,83.2,0c6-0.1,4.6,3.3,4.8,6.6
	c0.3,3.6,0,5.6-4.8,5.6c-23.6-0.3-47.1-0.1-70.7-0.2c-3.7,0-5.2,0.6-5.1,4.8c0.3,9.3,0.3,18.6,0,27.9c-0.1,3.6,1,4.4,4.4,4.4
	c19.6-0.2,39.2,0.1,58.8-0.2c5.1-0.1,5.5,2,5.4,6c-0.1,3.7,0.3,6.3-5.2,6.2c-19.6-0.4-39.2-0.1-58.8-0.3c-3.7,0-4.7,0.9-4.7,4.6
	c0.2,17.4,0.2,34.8,0,52.3c0,3.8,1.1,4.7,4.8,4.7c24.1-0.2,48.1,0.1,72.2-0.2c5.2-0.1,5,2.3,5,5.9c-0.1,3.4,0.5,6.1-4.9,6
	c-28-0.3-56.1-0.3-84.2,0c-4.4,0-5.1-1.4-5-5.3C849,263.7,848.9,243.1,848.9,222.6z"/>
<path class="st0" d="M1030.6,228.9c0,18.6-0.1,37.2,0.1,55.7c0,3.9-1,5.5-5,4.9c-1.1-0.2-2.3-0.2-3.5,0c-3,0.4-4.1-0.6-4-3.8
	c0.3-5.1,0.1-10.3,0.1-15.4c0-32.7-0.1-65.4,0.1-98.1c0-3.7-0.9-4.7-4.6-4.7c-12.6,0.3-25.2-0.1-37.9,0.2c-3.9,0.1-5.1-1.1-4.5-4.7
	c0.2-1,0.2-2,0-3c-0.5-3.5,0.8-4.4,4.3-4.4c32.4,0.1,64.7,0.1,97.1,0c3.6,0,4.4,1,4.3,4.5c-0.2,7.5,0,7.5-7.6,7.5
	c-11.1,0-22.3,0.3-33.4-0.1c-5-0.2-5.9,1.5-5.8,6.1C1030.7,192.1,1030.6,210.5,1030.6,228.9z"/>
<path class="st0" d="M728.8,165.3v24.3c0,27.7,0.1,55.4-0.1,83.1c0,4.1,1,5.4,5.2,5.3c24.1-0.2,48.1,0.1,72.2-0.2
	c5.4-0.1,4.6,2.9,4.8,6.2c0.2,3.6-0.1,5.7-4.8,5.6c-28.4-0.2-56.7-0.2-85.1,0c-4,0-4.5-1.3-4.5-4.8c0.1-35.2,0.1-70.3,0-105.5
	c0-4.3,1-7.2,4.9-9.1C723.6,169,725.7,167.4,728.8,165.3z"/>
<path class="st0" d="M470.4,222.6c0-20.6,0.1-41.1-0.1-61.7c0-4,0.9-5.9,5.1-5.2c1.2,0.2,2.3,0.2,3.5,0c3.2-0.4,4.4,0.7,4.3,4.1
	c-0.2,7.3-0.1,14.6-0.1,21.9c0,34.1-0.1,68.3,0.1,102.4c0,4.4-1,6.2-5.5,5.4c-1-0.2-2-0.2-3,0c-3.4,0.5-4.5-0.8-4.4-4.3
	C470.5,264.4,470.4,243.5,470.4,222.6z"/>
<path class="st0" d="M131.9,273.2c-10.5,0-10.4,0-8.6-10.2c0.8-4.5,1.1-9.2,2-13.7c0.3-1.9-0.8-2.6-1.7-3.8
	c-4.1-5.6-3.7-11.6,1.1-16c2.1-2,4.8-3.1,7.6-3.1c2.8,0,5.6,1,7.7,3c4.5,4,5.2,10.9,1,16c-1.8,2.2-1.5,4.3-1.2,6.5
	c0.8,5.7,1.6,11.4,2.6,17.1c0.5,3,0.2,4.8-3.5,4.3C136.5,273.1,134.2,273.1,131.9,273.2z"/>
<path class="st0" d="M300.2,112.7V48.1h24.6c12.6,0,20.3,6.4,20.3,17.1c0,7.4-3.2,12.4-9.6,15.1c7.1,2.3,10.8,7.5,10.8,15.2
	c0,10.7-7.8,17.2-20.5,17.2H300.2z M324.3,55.9H309v20.7h15.9c7.2,0,11.3-3.9,11.3-10.6C336.2,59.5,331.9,55.9,324.3,55.9z
	 M325.6,84.2H309v20.7h16.6c7.5,0,11.7-3.8,11.7-10.5C337.3,87.9,333,84.2,325.6,84.2z M366,48.1v64.6h-8.7V48.1H366z M374.8,56.1
	v-8h47.6v8H403v56.5h-8.7V56.1H374.8z M458.5,31.5l-7.7,11.9h-6.5l6.1-11.9H458.5z M428,112.7h-9.1l23.6-64.6h9.7l23.7,64.6h-9.2
	l-5.8-16.1h-27.1L428,112.7z M446.2,62l-9.8,27h21.9l-9.9-27c-0.4-1.2-0.9-2.8-1.1-3.7C447.1,59.2,446.7,60.7,446.2,62z
	 M508.4,113.6c-18.4,0-30.6-13.2-30.6-33.2c0-19.9,12.6-33.4,31.1-33.4c14.6,0,25.7,8.7,28.1,21.9h-9.4c-2.4-8.4-9.6-13.5-19-13.5
	c-13,0-21.6,9.8-21.6,24.9c0,15.1,8.6,24.9,21.6,24.9c9.5,0,17-5.1,19.4-13h9.3C534.4,105.1,522.9,113.6,508.4,113.6z M606.2,80.3
	c0,19.6-12.9,33.4-31.2,33.4c-18.2,0-30.9-13.7-30.9-33.4c0-19.6,12.8-33.4,31-33.4C593.4,46.9,606.2,60.7,606.2,80.3z M597,80.3
	c0-15-8.7-24.9-21.9-24.9c-13.1,0-21.8,9.9-21.8,24.9s8.7,25,21.8,25C588.2,105.3,597,95.2,597,80.3z M626.1,112.7h-8.7V48.1h24.4
	c13.8,0,22.1,7.3,22.1,19.4c0,8.9-4.5,15.4-12.5,17.9l13.1,27.2h-9.7l-12.1-25.5h-16.5V112.7z M626.1,56v23.4h15.7
	c8.1,0,12.8-4.4,12.8-11.8c0-7.5-4.8-11.6-12.9-11.6H626.1z M678.4,112.7h-9.1l23.6-64.6h9.7l23.7,64.6h-9.2l-5.8-16.1h-27.1
	L678.4,112.7z M696.7,62l-9.8,27h21.9l-9.9-27c-0.4-1.2-0.9-2.8-1.1-3.7C697.5,59.2,697.1,60.7,696.7,62z"/>
</svg>
