<svg width="65" height="65" viewBox="0 0 65 65" fill="none" xmlns="http://www.w3.org/2000/svg">
<path fill-rule="evenodd" clip-rule="evenodd" d="M32.5359 0.263753V0.266417C40.9999 0.275594 49.1136 3.64671 55.092 9.63816C61.0705 15.6296 64.424 23.7506 64.4148 32.2146C64.4057 40.6786 61.0345 48.7923 55.0431 54.7708C49.0517 60.7492 40.9307 64.1027 32.4667 64.0936C14.9037 64.0989 0.585015 49.7669 0.585015 32.2013C0.577295 28.0039 1.39856 23.8463 3.00167 19.9671C4.60478 16.0879 6.95817 12.5635 9.92679 9.59612C12.8954 6.62873 16.4208 4.27681 20.3007 2.67531C22.6294 1.71407 25.0584 1.03454 27.5359 0.646886C29.0253 0.413838 30.5323 0.286278 32.0456 0.266417C32.161 0.264902 32.2765 0.264014 32.392 0.263753C32.44 0.263645 32.4879 0.263645 32.5359 0.263753ZM22.2084 7.29706C25.3529 5.99911 28.714 5.31033 32.1131 5.26596L32.5304 5.26641C39.6684 5.27415 46.5109 8.11711 51.5527 13.1699C56.5945 18.2226 59.4226 25.0713 59.4148 32.2092C59.4071 39.3471 56.5641 46.1896 51.5114 51.2314C46.4587 56.2732 39.61 59.1013 32.4721 59.0936H32.4651C17.668 59.098 5.58501 47.0088 5.58502 32.2013L5.58501 32.1921C5.5785 28.653 6.27095 25.1475 7.62262 21.8768C8.97429 18.606 10.9586 15.6344 13.4616 13.1324C15.9646 10.6304 18.9371 8.64737 22.2084 7.29706ZM32.4148 15.2637C34.0716 15.2637 35.4148 16.6068 35.4148 18.2637V36.2637C35.4148 37.9205 34.0716 39.2637 32.4148 39.2637C30.7579 39.2637 29.4148 37.9205 29.4148 36.2637V18.2637C29.4148 16.6068 30.7579 15.2637 32.4148 15.2637ZM35.4148 46.2637C35.4148 47.9205 34.0716 49.2637 32.4148 49.2637C30.7579 49.2637 29.4148 47.9205 29.4148 46.2637C29.4148 44.6068 30.7579 43.2637 32.4148 43.2637C34.0716 43.2637 35.4148 44.6068 35.4148 46.2637Z" fill="#FF7B56"/>
</svg>
