<svg width="22" height="18" viewBox="0 0 22 18" fill="none" xmlns="http://www.w3.org/2000/svg">
<path d="M2.79811 7.69944V7.69944C2.08118 7.69944 1.5 8.28062 1.5 8.99755V12.0264C1.5 12.9424 2.24262 13.6851 3.15869 13.6851V13.6851M2.79811 7.69944L4.29741 3.75842C4.91437 2.13672 6.46905 1.06479 8.20414 1.06479H9.46883M2.79811 7.69944H9.46883M18.303 7.69944V7.69944C19.5775 7.69944 20.6107 8.73263 20.6107 10.0071V11.9543C20.6107 12.9102 19.8358 13.6851 18.88 13.6851V13.6851M18.303 7.69944L14.8646 2.83275C14.0813 1.72404 12.8083 1.06479 11.4508 1.06479H9.46883M18.303 7.69944H9.46883M9.46883 1.06479V7.69944M3.15869 13.6851C2.96638 14.8389 3.12984 17.1466 5.32217 17.1466C7.51449 17.1466 7.5818 14.8389 7.34141 13.6851M3.15869 13.6851H7.34141M7.34141 13.6851H14.8415M14.8415 13.6851C14.6251 14.8389 14.7261 17.1466 16.8607 17.1466C18.9953 17.1466 19.0963 14.8389 18.88 13.6851M14.8415 13.6851H18.88" stroke="#28303F" stroke-width="1.37421"/>
</svg>
