<svg width="28" height="27" viewBox="0 0 28 27" fill="none" xmlns="http://www.w3.org/2000/svg">
<path d="M7.33334 7.61182V4.61182C7.33334 3.81617 7.66112 3.05311 8.24457 2.4905C8.82801 1.92789 9.61934 1.61182 10.4445 1.61182H22.8889C23.714 1.61182 24.5053 1.92789 25.0888 2.4905C25.6722 3.05311 26 3.81617 26 4.61182V22.6118C26 23.4075 25.6722 24.1705 25.0888 24.7331C24.5053 25.2957 23.714 25.6118 22.8889 25.6118H11.0667C9.34857 25.6118 7.33334 24.2686 7.33334 22.6118V19.6118" stroke="#2EAB03" stroke-width="2.66667" stroke-linecap="round" stroke-linejoin="round"/>
<path d="M16.0789 18.9451L22 13.6118L16.0789 8.27844M2 13.6118H20.8158" stroke="#2EAB03" stroke-width="2.66667" stroke-linecap="round" stroke-linejoin="round"/>
</svg>
