<svg width="28" height="27" viewBox="0 0 28 27" fill="none" xmlns="http://www.w3.org/2000/svg">
<path d="M20.6667 7.61169V4.61169C20.6667 3.81604 20.3389 3.05298 19.7554 2.49037C19.172 1.92776 18.3807 1.61169 17.5556 1.61169H5.11112C4.286 1.61169 3.49468 1.92776 2.91123 2.49037C2.32778 3.05298 2.00001 3.81604 2.00001 4.61169V22.6117C2.00001 23.4073 2.32778 24.1704 2.91123 24.733C3.49468 25.2956 4.286 25.6117 5.11112 25.6117H16.9333C18.6514 25.6117 20.6667 24.2684 20.6667 22.6117V19.6117" stroke="#EE472B" stroke-width="2.66667" stroke-linecap="round" stroke-linejoin="round"/>
<path d="M11.9211 18.945L6 13.6117L11.9211 8.27832M26 13.6117H7.18421" stroke="#EE472B" stroke-width="2.66667" stroke-linecap="round" stroke-linejoin="round"/>
</svg>
