<svg width="33" height="31" viewBox="0 0 33 31" fill="none" xmlns="http://www.w3.org/2000/svg">
<path d="M30.6453 10.7826H2.35467L4.63867 4.4357C5.592 1.78317 8.10933 0 10.9027 0H22.0973C24.892 0 27.408 1.78317 28.3613 4.43704L30.6453 10.7826ZM32.5 18.8696V20.2174C32.5 22.9737 30.8507 25.3418 28.5 26.385V28.3043C28.5 29.7937 27.3067 31 25.8333 31C24.36 31 23.1667 29.7937 23.1667 28.3043V26.9565H9.83333V28.3043C9.83333 29.7937 8.64 31 7.16667 31C5.69333 31 4.5 29.7937 4.5 28.3043V26.385C2.14933 25.3418 0.5 22.9737 0.5 20.2174V18.8696H4.5C5.23733 18.8696 5.83333 18.2657 5.83333 17.5217C5.83333 16.7777 5.23733 16.1739 4.5 16.1739H0.616C0.704 15.5863 0.833333 15.008 1.036 14.446L1.384 13.4783H31.6147L31.9627 14.446C32.1653 15.008 32.2947 15.5863 32.3827 16.1739H28.4987C27.7613 16.1739 27.1653 16.7777 27.1653 17.5217C27.1653 18.2657 27.7613 18.8696 28.4987 18.8696H32.5ZM21.8333 21.5652C21.8333 20.8212 21.2373 20.2174 20.5 20.2174H12.5C11.7627 20.2174 11.1667 20.8212 11.1667 21.5652C11.1667 22.3092 11.7627 22.913 12.5 22.913H20.5C21.2373 22.913 21.8333 22.3092 21.8333 21.5652Z" fill="#5B5856"/>
</svg>
