<svg width="30" height="30" viewBox="0 0 30 30" fill="none" xmlns="http://www.w3.org/2000/svg">
<path d="M10.8002 1.00024H2.40029C1.6271 1.00024 1.00031 1.62704 1.00031 2.40023V10.8001C1.00031 11.5733 1.6271 12.2001 2.40029 12.2001H10.8002C11.5734 12.2001 12.2002 11.5733 12.2002 10.8001V2.40023C12.2002 1.62704 11.5734 1.00024 10.8002 1.00024Z" stroke="#202023" stroke-width="2" stroke-linecap="round" stroke-linejoin="round"/>
<path d="M10.8002 17.7998H2.40029C1.6271 17.7998 1.00031 18.4266 1.00031 19.1998V27.5997C1.00031 28.3729 1.6271 28.9997 2.40029 28.9997H10.8002C11.5734 28.9997 12.2002 28.3729 12.2002 27.5997V19.1998C12.2002 18.4266 11.5734 17.7998 10.8002 17.7998Z" stroke="#202023" stroke-width="2" stroke-linecap="round" stroke-linejoin="round"/>
<path d="M27.6012 1.00024H19.2013C18.4281 1.00024 17.8013 1.62704 17.8013 2.40023V10.8001C17.8013 11.5733 18.4281 12.2001 19.2013 12.2001H27.6012C28.3744 12.2001 29.0012 11.5733 29.0012 10.8001V2.40023C29.0012 1.62704 28.3744 1.00024 27.6012 1.00024Z" stroke="#202023" stroke-width="2" stroke-linecap="round" stroke-linejoin="round"/>
<path d="M17.8013 17.7998V23.3997" stroke="#202023" stroke-width="2" stroke-linecap="round" stroke-linejoin="round"/>
<path d="M17.8013 28.9997H23.4013V17.7998" stroke="#202023" stroke-width="2" stroke-linecap="round" stroke-linejoin="round"/>
<path d="M23.4007 20.6002H29.0006" stroke="#202023" stroke-width="2" stroke-linecap="round" stroke-linejoin="round"/>
<path d="M29 26.2003V29.0003" stroke="#202023" stroke-width="2" stroke-linecap="round" stroke-linejoin="round"/>
</svg>
