<svg width="25" height="31" viewBox="0 0 25 31" fill="none" xmlns="http://www.w3.org/2000/svg">
<path d="M17.5451 23.332C19.8455 24.6106 21.652 26.7219 22.4371 29.3282C22.5546 29.7188 22.4859 30.1454 22.2496 30.4754C22.0133 30.8054 21.6407 31 21.2432 31H3.74181C3.34425 31 2.97045 30.8054 2.73541 30.4754C2.50038 30.1454 2.43036 29.7201 2.54788 29.3282C3.3355 26.7168 5.14702 24.6029 7.45362 23.3242C8.04496 22.9968 8.78007 23.1335 9.21013 23.6658L11.6467 26.6794C12.0918 27.2298 12.9119 27.2298 13.357 26.6794L15.7874 23.6723C16.2174 23.1399 16.9538 23.0033 17.5451 23.332ZM23.3235 3.41624L15.2423 0.476116C13.507 -0.156764 11.5967 -0.158053 9.86273 0.468382L1.68275 3.4201C0.660099 3.78875 0 4.74773 0 5.86397C0 6.9815 0.661349 7.94049 1.684 8.30784L9.81897 11.2338C10.6804 11.5431 11.5867 11.6991 12.4919 11.6991C13.397 11.6991 14.3021 11.5431 15.1635 11.2338L22.4946 8.59786V14.2422C22.4946 14.9537 23.0547 15.5312 23.7448 15.5312C24.4349 15.5312 24.995 14.9537 24.995 14.2422C24.995 14.2422 25 5.873 25 5.86139C25.0012 4.74644 24.3437 3.78617 23.3247 3.41495L23.3235 3.41624ZM19.993 12.2276L15.9861 13.6686C13.7383 14.4768 11.2442 14.4768 8.9951 13.6686L4.99075 12.2276V12.9533C4.99075 17.2184 8.355 20.687 12.4919 20.687C16.6287 20.687 19.993 17.2184 19.993 12.9533V12.2263V12.2276Z" fill="#5B5856"/>
</svg>
