<svg width="64" height="64" viewBox="0 0 64 64" fill="none" xmlns="http://www.w3.org/2000/svg">
<path fill-rule="evenodd" clip-rule="evenodd" d="M31.9509 8.11188e-05V0.00274518C40.4149 0.0119217 48.5286 3.38304 54.5071 9.37449C60.4855 15.3659 63.839 23.4869 63.8299 31.9509C63.8207 40.4149 60.4496 48.5286 54.4581 54.5071C48.4667 60.4856 40.3457 63.8391 31.8817 63.8299C14.3187 63.8352 5.39253e-05 49.5033 5.39253e-05 31.9376C-0.00766611 27.7402 0.813596 23.5826 2.41671 19.7034C4.01981 15.8242 6.37321 12.2998 9.34183 9.33245C12.3105 6.36506 15.8359 4.01313 19.7157 2.41164C22.0445 1.4504 24.4734 0.770868 26.9509 0.383214C28.4403 0.150166 29.9473 0.022606 31.4606 0.00274518C31.5761 0.00123005 31.6915 0.000341705 31.8071 8.11188e-05C31.855 -2.70279e-05 31.9029 -2.70513e-05 31.9509 8.11188e-05ZM21.6234 7.03339C24.7679 5.73544 28.1291 5.04666 31.5281 5.00229L31.9455 5.00274C39.0834 5.01048 45.9259 7.85344 50.9677 12.9062C56.0095 17.9589 58.8376 24.8076 58.8299 31.9455C58.8221 39.0834 55.9792 45.9259 50.9264 50.9677C45.8737 56.0095 39.0251 58.8376 31.8871 58.8299L31.8802 58.8299C17.0831 58.8344 5.00005 46.7451 5.00006 31.9376L5.00005 31.9284C4.99354 28.3894 5.68599 24.8839 7.03766 21.6131C8.38933 18.3423 10.3736 15.3707 12.8766 12.8687C15.3796 10.3667 18.3521 8.3837 21.6234 7.03339ZM45.2422 24.9931C46.343 23.7547 46.2314 21.8585 44.9931 20.7578C43.7547 19.657 41.8585 19.7686 40.7578 21.0069L27.3401 36.1018L23.4962 30.3359C22.5771 28.9573 20.7145 28.5848 19.3359 29.5038C17.9573 30.4229 17.5848 32.2855 18.5038 33.6641L24.5038 42.6641C25.0196 43.4376 25.8647 43.9284 26.7922 43.9928C27.7197 44.0572 28.6246 43.688 29.2422 42.9931L45.2422 24.9931Z" fill="#56D6A0"/>
</svg>
